<svg xmlns="http://www.w3.org/2000/svg" xmlns:xlink="http://www.w3.org/1999/xlink" width="242.854" height="225.34" viewBox="0 0 242.854 225.34"><defs><path id="a" d="M3.173 1.925h234.001v201.318H3.173z"/></defs><clipPath id="b"><use xlink:href="#a" overflow="visible"/></clipPath><path clip-path="url(#b)" fill="none" stroke="#000" stroke-width=".654" stroke-miterlimit="1" d="M57.948 15.651c0-6.498-11.647-11.766-26.015-11.766-14.367 0-26.014 5.268-26.014 11.766s11.647 11.765 26.014 11.765c14.368 0 26.015-5.267 26.015-11.765"/><g clip-path="url(#b)"><text transform="translate(16.9 18.984)"><tspan x="0" y="0" font-family="'Times-Roman'" font-size="9.151">Client </tspan><tspan x="25.36" y="0" font-family="'Times-Roman'" font-size="9.151">1</tspan></text></g><path clip-path="url(#b)" fill="none" stroke="#000" stroke-width=".654" stroke-miterlimit="1" d="M201.348 15.651c0-6.498-16.736-11.766-37.381-11.766-20.646 0-37.382 5.268-37.382 11.766s16.736 11.765 37.382 11.765c20.645 0 37.381-5.267 37.381-11.765"/><g clip-path="url(#b)"><text transform="translate(140.436 18.984)"><tspan x="0" y="0" font-family="'Times-Roman'" font-size="9.151">Head Serve</tspan><tspan x="43.802" y="0" font-family="'Times-Roman'" font-size="9.151">r</tspan></text></g><path clip-path="url(#b)" fill="none" stroke="#000" stroke-width=".654" stroke-miterlimit="1" d="M58.654 15.651h61.141"/><path clip-path="url(#b)" d="M119.998 13.363l6.536 2.288-6.536 2.287"/><path clip-path="url(#b)" fill="none" stroke="#000" stroke-width=".654" stroke-miterlimit="1" d="M119.998 13.363l6.536 2.288-6.536 2.287z"/><g clip-path="url(#b)"><text transform="translate(63.635 14.082)"><tspan x="0" y="0" font-family="'Times-Roman'" font-size="9.151">Update reques</tspan><tspan x="54.141" y="0" font-family="'Times-Roman'" font-size="9.151">t</tspan></text></g><path clip-path="url(#b)" fill="none" stroke="#000" stroke-width=".654" stroke-miterlimit="1" d="M234.428 188.209c0-6.497-11.646-11.765-26.015-11.765-14.366 0-26.014 5.268-26.014 11.765 0 6.498 11.647 11.767 26.014 11.767 14.369 0 26.015-5.269 26.015-11.767"/><g clip-path="url(#b)"><text transform="translate(193.38 191.543)"><tspan x="0" y="0" font-family="'Times-Roman'" font-size="9.151">Client </tspan><tspan x="25.36" y="0" font-family="'Times-Roman'" font-size="9.151">2</tspan></text></g><path clip-path="url(#b)" fill="none" stroke="#000" stroke-width=".654" stroke-miterlimit="1" d="M121.48 188.209c0-6.497-15.217-11.765-33.988-11.765-18.772 0-33.989 5.268-33.989 11.765 0 6.498 15.217 11.767 33.989 11.767s33.988-5.269 33.988-11.767"/><g clip-path="url(#b)"><text transform="translate(66.576 191.543)"><tspan x="0" y="0" font-family="'Times-Roman'" font-size="9.151">Tail Serve</tspan><tspan x="38.683" y="0" font-family="'Times-Roman'" font-size="9.151">r</tspan></text></g><path clip-path="url(#b)" fill="none" stroke="#000" stroke-width=".654" stroke-miterlimit="1" d="M181.942 188.209h-53.787"/><path clip-path="url(#b)" d="M128.037 190.497l-6.537-2.288 6.537-2.287"/><path clip-path="url(#b)" fill="none" stroke="#000" stroke-width=".654" stroke-miterlimit="1" d="M128.037 190.497l-6.537-2.288 6.537-2.287z"/><g clip-path="url(#b)"><text transform="translate(127.037 186.641)"><tspan x="0" y="0" font-family="'Times-Roman'" font-size="9.151">Read reques</tspan><tspan x="46.281" y="0" font-family="'Times-Roman'" font-size="9.151">t</tspan></text></g><path clip-path="url(#b)" fill="none" stroke="#000" stroke-width=".654" stroke-miterlimit="1" d="M201.872 73.17c0-6.497-20.775-11.765-46.402-11.765s-46.4 5.268-46.4 11.765c0 6.498 20.773 11.766 46.4 11.766s46.402-5.268 46.402-11.766"/><g clip-path="url(#b)"><text transform="translate(124.749 76.504)"><tspan x="0" y="0" font-family="'Times-Roman'" font-size="9.151">Middle 1 Serve</tspan><tspan x="58.213" y="0" font-family="'Times-Roman'" font-size="9.151">r</tspan></text></g><path clip-path="url(#b)" fill="none" stroke="#000" stroke-width=".654" stroke-miterlimit="1" d="M162.208 27.567c-1.149 7.791-2.68 18.125-3.987 26.988"/><path clip-path="url(#b)" d="M160.444 55.137l-3.215 6.131-1.309-6.798"/><path clip-path="url(#b)" fill="none" stroke="#000" stroke-width=".654" stroke-miterlimit="1" d="M160.444 55.137l-3.215 6.131-1.309-6.798z"/><g clip-path="url(#b)"><text transform="translate(160.699 47.744)"><tspan x="0" y="0" font-family="'Times-Roman'" font-size="9.151">Replicatio</tspan><tspan x="38.432" y="0" font-family="'Times-Roman'" font-size="9.151">n</tspan></text></g><path clip-path="url(#b)" fill="none" stroke="#000" stroke-width=".654" stroke-miterlimit="1" d="M180.301 130.69c0-6.498-20.774-11.767-46.401-11.767-25.626 0-46.401 5.269-46.401 11.767s20.775 11.765 46.401 11.765c25.627 0 46.401-5.267 46.401-11.765"/><g clip-path="url(#b)"><text transform="translate(103.18 134.024)"><tspan x="0" y="0" font-family="'Times-Roman'" font-size="9.151">Middle 2 Serve</tspan><tspan x="58.213" y="0" font-family="'Times-Roman'" font-size="9.151">r</tspan></text></g><path clip-path="url(#b)" fill="none" stroke="#000" stroke-width=".654" stroke-miterlimit="1" d="M150.999 85.086c-2.98 7.948-6.947 18.537-10.314 27.511"/><path clip-path="url(#b)" d="M142.803 113.474l-4.439 5.313.15-6.922"/><path clip-path="url(#b)" fill="none" stroke="#000" stroke-width=".654" stroke-miterlimit="1" d="M142.803 113.474l-4.439 5.313.15-6.922z"/><g clip-path="url(#b)"><text transform="translate(146.973 105.264)"><tspan x="0" y="0" font-family="'Times-Roman'" font-size="9.151">Replicatio</tspan><tspan x="38.432" y="0" font-family="'Times-Roman'" font-size="9.151">n</tspan></text></g><path clip-path="url(#b)" fill="none" stroke="#000" stroke-width=".654" stroke-miterlimit="1" d="M124.506 142.331c-6.771 8.393-16.02 19.857-23.576 29.218"/><path clip-path="url(#b)" d="M102.598 173.13l-5.89 3.654 2.328-6.523"/><path clip-path="url(#b)" fill="none" stroke="#000" stroke-width=".654" stroke-miterlimit="1" d="M102.598 173.13l-5.89 3.654 2.328-6.523z"/><g clip-path="url(#b)"><text transform="translate(114.945 162.783)"><tspan x="0" y="0" font-family="'Times-Roman'" font-size="9.151">Replicatio</tspan><tspan x="38.432" y="0" font-family="'Times-Roman'" font-size="9.151">n</tspan></text></g><path clip-path="url(#b)" fill="none" stroke="#000" stroke-width=".654" stroke-miterlimit="1" d="M83.721 176.496C74.21 146.965 49.216 69.32 37.783 33.822"/><path clip-path="url(#b)" d="M35.581 34.436l.169-6.922 4.184 5.517"/><path clip-path="url(#b)" fill="none" stroke="#000" stroke-width=".654" stroke-miterlimit="1" d="M35.581 34.436l.169-6.922 4.184 5.517z"/><g clip-path="url(#b)"><text transform="translate(61.347 105.264)"><tspan x="0" y="0" font-family="'Times-Roman'" font-size="9.151">Update repl</tspan><tspan x="44.852" y="0" font-family="'Times-Roman'" font-size="9.151">y</tspan></text></g><path clip-path="url(#b)" fill="none" stroke="#000" stroke-width=".654" stroke-miterlimit="1" d="M113.036 180.372c4.517-1.091 9.203-2.032 13.674-2.621 21.891-2.869 27.871-3.47 49.676 0 1.752.282 3.543.641 5.334 1.059"/><path clip-path="url(#b)" d="M182.426 176.627l5.719 3.902-6.902.523"/><path clip-path="url(#b)" fill="none" stroke="#000" stroke-width=".654" stroke-miterlimit="1" d="M182.426 176.627l5.719 3.902-6.902.523z"/><g clip-path="url(#b)"><text transform="translate(130.632 174.222)"><tspan x="0" y="0" font-family="'Times-Roman'" font-size="9.151">Read repl</tspan><tspan x="37.046" y="0" font-family="'Times-Roman'" font-size="9.151">y</tspan></text></g><path fill="none" stroke="#000" stroke-width=".333" stroke-miterlimit="10" d="M1.743 207.388h239.111"/><text transform="translate(4.839 217.715)"><tspan x="0" y="0" font-family="'Times-Bold'" font-size="8.966">Figu</tspan><tspan x="17.438" y="0" font-family="'Times-Bold'" font-size="8.966">r</tspan><tspan x="21.256" y="0" font-family="'Times-Bold'" font-size="8.966" letter-spacing="2">e</tspan><tspan x="27.469" y="0" font-family="'Times-Bold'" font-size="8.966">1.</tspan></text><text transform="translate(43.521 217.715)"><tspan x="0" y="0" font-family="'Times-Roman'" font-size="8.966">Writ</tspan><tspan x="16.431" y="0" font-family="'Times-Roman'" font-size="8.966" letter-spacing="2">e</tspan><tspan x="22.652" y="0" font-family="'Times-Roman'" font-size="8.966">an</tspan><tspan x="31.115" y="0" font-family="'Times-Roman'" font-size="8.966" letter-spacing="2">d</tspan><tspan x="37.84" y="0" font-family="'Times-Roman'" font-size="8.966">rea</tspan><tspan x="48.785" y="0" font-family="'Times-Roman'" font-size="8.966" letter-spacing="2">d</tspan><tspan x="55.501" y="0" font-family="'Times-Roman'" font-size="8.966">operation</tspan><tspan x="89.361" y="0" font-family="'Times-Roman'" font-size="8.966" letter-spacing="2">s</tspan><tspan x="95.101" y="0" font-family="'Times-Roman'" font-size="8.966">upo</tspan><tspan x="108.551" y="0" font-family="'Times-Roman'" font-size="8.966" letter-spacing="2">n</tspan><tspan x="115.267" y="0" font-family="'Times-Roman'" font-size="8.966" letter-spacing="2">a</tspan><tspan x="121.488" y="0" font-family="'Times-Roman'" font-size="8.966">chai</tspan><tspan x="136.422" y="0" font-family="'Times-Roman'" font-size="8.966" letter-spacing="2">n</tspan><tspan x="143.146" y="0" font-family="'Times-Roman'" font-size="8.966">o</tspan><tspan x="147.63" y="0" font-family="'Times-Roman'" font-size="8.966" letter-spacing="2">f</tspan><tspan x="152.857" y="0" font-family="'Times-Roman'" font-size="8.966">lengt</tspan><tspan x="170.786" y="0" font-family="'Times-Roman'" font-size="8.966" letter-spacing="2">h</tspan><tspan x="177.501" y="0" font-family="'Times-Roman'" font-size="8.966">fou</tspan><tspan x="189.454" y="0" font-family="'Times-Roman'" font-size="8.966">r</tspan><tspan x="191.955" y="0" font-family="'Times-Roman'" font-size="8.966">.</tspan></text></svg>